
<svg version="1.0" xmlns="http://www.w3.org/2000/svg"
 width="1335.000000pt" height="655.000000pt" viewBox="0 0 1335.000000 655.000000"
 preserveAspectRatio="xMidYMid meet">

<g transform="translate(0.000000,655.000000) scale(0.100000,-0.100000)"
fill="#000000" stroke="none">
<path d="M0 3280 l0 -3270 4738 0 4737 0 2 313 c2 172 -2 343 -7 382 -6 39
-12 107 -15 153 -3 46 -7 88 -11 93 -21 35 -216 99 -299 99 -59 0 -62 -10 -26
-102 17 -45 53 -138 78 -206 l46 -123 -19 -27 c-42 -58 -217 -114 -251 -80 -7
8 -56 128 -109 268 -52 139 -99 259 -105 266 -6 7 -34 27 -62 44 -60 35 -167
123 -181 147 -5 10 -13 37 -18 62 -4 25 -19 57 -32 71 -44 47 -58 96 -42 146
5 17 -2 27 -34 49 -80 55 -93 126 -33 181 20 19 35 35 32 38 -2 2 -23 13 -46
25 -52 26 -73 55 -73 102 0 40 39 89 71 89 10 0 20 4 23 8 5 8 -88 255 -119
317 -9 17 -47 68 -86 115 -39 47 -80 102 -91 124 -35 67 -110 270 -115 307 -4
32 -1 40 30 65 20 16 77 46 128 68 97 41 205 100 253 139 l29 24 -137 97 c-76
54 -151 105 -167 115 -16 9 -29 19 -29 22 0 4 20 12 45 19 26 7 45 19 45 27 0
7 11 18 24 24 14 7 22 17 19 25 -3 8 0 14 6 14 15 0 14 27 -1 33 -23 8 5 25
82 47 87 25 95 31 81 57 -11 21 -66 30 -76 12 -10 -15 -35 -10 -35 6 0 10 10
15 28 15 15 0 33 5 39 11 7 7 15 6 26 -5 9 -9 32 -16 54 -16 35 0 38 -2 38
-27 0 -16 7 -105 14 -199 8 -94 11 -188 7 -207 -4 -21 -22 -52 -41 -73 -33
-35 -34 -36 -9 -31 24 4 24 3 8 -14 -16 -18 -16 -19 7 -19 13 0 33 -7 43 -15
13 -10 23 -11 31 -5 8 7 22 0 45 -20 36 -32 45 -36 55 -20 3 5 -9 17 -27 26
-18 9 -35 18 -37 20 -2 2 10 15 27 29 64 54 76 128 59 398 -4 71 -4 127 1 127
5 0 12 -75 16 -167 9 -200 21 -306 35 -311 16 -5 13 -44 -5 -70 -8 -12 -13
-26 -10 -31 7 -10 78 2 126 22 19 9 47 13 63 10 30 -6 47 -23 23 -23 -10 0
-15 -8 -13 -21 1 -12 -4 -24 -11 -26 -6 -3 -12 3 -12 11 0 15 -2 15 -26 0 -19
-13 -28 -14 -33 -5 -4 6 -15 9 -24 5 -19 -7 -22 -21 -6 -26 13 -4 -137 -101
-226 -146 -33 -17 -75 -33 -94 -36 -29 -5 -32 -4 -20 10 7 8 44 36 83 61 86
56 72 68 -20 19 -59 -31 -69 -34 -86 -21 -24 16 -48 60 -48 87 0 17 -5 19 -32
13 -64 -13 -63 -12 -60 -60 3 -30 0 -45 -8 -45 -7 0 -9 -8 -4 -22 3 -13 3 -20
-1 -16 -5 4 -15 3 -22 -4 -11 -9 -16 -9 -23 2 -7 12 -13 10 -33 -8 -21 -20
-23 -28 -17 -67 4 -25 5 -45 3 -45 -2 0 3 -12 11 -27 7 -16 17 -47 21 -70 4
-24 11 -43 16 -43 4 0 31 9 59 20 28 11 56 20 63 20 14 0 39 -52 36 -72 -4
-23 13 -48 31 -48 11 0 22 -4 25 -10 3 -6 28 -10 55 -10 29 0 50 -5 53 -12 4
-8 6 -7 6 3 1 9 7 19 15 22 8 3 19 14 25 25 9 17 6 18 -42 11 -30 -4 -56 -3
-62 3 -6 6 -3 7 9 2 17 -7 17 -4 -4 24 -16 21 -25 50 -28 87 -4 48 -1 59 18
80 31 33 67 32 103 -2 l29 -28 -13 28 c-7 15 -10 29 -8 30 12 10 149 85 179
99 38 17 113 13 107 -5 -2 -7 -53 -42 -113 -78 -60 -37 -109 -72 -109 -77 0
-6 -4 -14 -9 -19 -5 -5 -6 -3 -2 5 5 8 0 12 -13 12 -23 0 -26 -12 -11 -39 5
-10 13 -58 18 -107 7 -68 20 -117 56 -209 62 -156 137 -351 149 -387 6 -16 20
-18 108 -18 l101 0 105 -107 c57 -60 141 -145 185 -190 81 -84 117 -105 103
-60 -4 12 -11 144 -15 292 -5 149 -13 302 -19 340 -6 39 -10 75 -11 81 0 5
-15 35 -33 65 -64 107 -88 149 -84 149 3 0 24 -29 48 -65 24 -36 48 -65 53
-65 5 0 6 21 3 47 -4 40 -3 45 7 30 7 -9 15 -14 18 -12 3 3 15 -30 26 -72 65
-235 115 -539 92 -553 -7 -4 -8 -24 -5 -51 6 -40 5 -42 -8 -26 -9 11 -14 34
-12 55 1 20 1 32 -2 26 -2 -7 -12 -10 -22 -7 -17 4 -19 -4 -20 -94 -1 -54 -3
-105 -3 -113 -3 -48 4 -57 80 -101 42 -25 103 -59 135 -74 57 -28 79 -45 58
-45 -6 0 -11 -4 -11 -10 0 -16 28 -11 38 7 9 15 16 15 67 4 47 -11 306 -91
418 -130 34 -12 35 1 5 95 -12 38 -22 80 -23 94 -5 59 -4 56 -16 40 -9 -13
-10 -13 -7 0 3 8 15 17 29 20 22 5 24 11 24 60 0 47 3 55 18 52 9 -2 17 2 17
8 0 5 -6 10 -14 10 -22 0 -24 21 -9 65 12 36 12 41 -7 67 -21 29 -27 68 -10
68 6 0 10 -8 10 -17 0 -10 8 -27 16 -38 15 -20 16 -19 45 14 17 18 34 29 39
25 9 -11 1 -85 -10 -79 -4 3 -8 -1 -7 -8 1 -46 -5 -78 -19 -92 -21 -20 -18
-23 41 -34 52 -10 78 -33 73 -66 -4 -28 -44 -45 -109 -45 l-56 0 9 -53 c5 -28
15 -101 22 -160 8 -60 16 -110 18 -111 2 -2 41 -10 88 -19 183 -34 271 -38
294 -14 15 16 19 47 6 47 -5 0 -10 -6 -10 -13 0 -20 -32 -16 -37 4 -3 10 -18
20 -34 23 -16 3 -42 9 -58 12 -33 6 -56 28 -46 44 4 6 -5 10 -22 10 -35 0 -58
14 -48 30 8 13 121 3 173 -15 8 -3 44 -8 80 -11 37 -4 75 -11 85 -16 10 -5 25
-7 32 -4 8 3 17 1 20 -4 3 -5 20 -6 38 -3 35 5 70 -18 47 -32 -8 -5 -8 -11 1
-21 7 -8 7 -14 1 -14 -5 0 -12 7 -16 15 -8 22 -36 18 -36 -5 0 -11 0 -23 1
-26 0 -4 -5 -10 -11 -14 -9 -5 -6 -10 9 -15 31 -10 26 -23 -11 -27 -50 -5 -42
-31 12 -45 25 -6 35 -12 22 -12 -27 -1 -480 75 -535 90 -21 6 -41 8 -44 6 -12
-13 30 -67 62 -78 19 -7 35 -17 35 -21 0 -4 5 -7 12 -6 6 2 17 -8 25 -22 9
-18 13 -20 13 -8 0 25 20 32 38 14 15 -15 15 -18 2 -26 -12 -7 -12 -12 -2 -22
9 -9 12 -8 12 6 0 10 5 14 11 11 6 -4 9 0 7 8 -2 9 1 15 7 14 5 -1 8 -10 7
-19 -3 -15 3 -17 29 -14 18 2 35 8 36 13 5 15 66 2 86 -19 11 -11 26 -17 37
-13 10 3 21 2 24 -3 3 -5 16 -10 28 -10 41 -2 57 -8 100 -36 25 -16 44 -23 46
-17 5 14 65 14 78 1 7 -7 23 -2 48 15 21 14 48 25 60 23 15 -2 21 2 19 15 0
11 4 16 12 13 10 -4 11 2 4 27 -5 18 -9 34 -9 36 0 2 -6 -1 -13 -7 -10 -8 -39
-6 -108 7 -97 20 -88 28 13 12 31 -5 65 -7 76 -4 17 4 19 9 11 36 -11 37 4 53
58 63 22 4 32 11 29 19 -2 7 0 17 6 23 16 16 -10 46 -61 66 -59 24 -69 33 -85
71 -26 60 -29 110 -10 130 40 40 275 -13 489 -110 17 -8 59 -27 95 -43 87 -39
282 -174 331 -230 55 -63 58 -83 20 -144 -18 -28 -30 -53 -27 -55 10 -10 46
20 61 51 14 28 14 43 5 87 -18 91 -17 112 7 132 11 9 26 17 32 17 11 0 15 19
12 53 -1 9 2 17 7 17 5 0 15 13 22 29 6 16 18 32 26 35 12 4 27 30 39 66 1 3
5 13 9 22 4 9 5 21 2 27 -4 5 -2 12 4 16 6 4 10 -28 10 -92 0 -84 -3 -105 -24
-148 -13 -27 -48 -101 -77 -163 -29 -62 -59 -118 -66 -124 -18 -15 -16 -35 7
-68 27 -38 47 -141 54 -285 7 -118 22 -220 53 -342 8 -35 13 -70 9 -78 -3 -8
-1 -15 4 -15 5 0 9 -10 9 -22 0 -13 1 -32 4 -43 4 -20 13 -20 605 -23 l602 -2
0 3270 0 3270 -6675 0 -6675 0 0 -3270z m139 2935 c33 -17 41 -33 41 -85 0
-51 -35 -80 -96 -80 l-44 0 0 90 0 90 35 0 c20 0 49 -7 64 -15z m181 0 c0 -11
-11 -15 -40 -15 -36 0 -40 -2 -40 -25 0 -23 4 -25 41 -25 52 0 48 -24 -4 -28
-35 -3 -37 -5 -37 -38 0 -24 -5 -34 -15 -34 -12 0 -15 17 -15 90 l0 90 55 0
c42 0 55 -3 55 -15z m141 -6 c26 -26 17 -37 -15 -20 -28 15 -61 11 -61 -8 0
-7 20 -23 45 -34 49 -24 62 -53 35 -81 -32 -31 -115 -16 -115 21 0 17 18 16
36 -2 20 -19 38 -19 54 0 16 19 7 29 -43 45 -48 15 -61 54 -27 82 29 24 65 23
91 -3z m3669 -100 c0 -12 7 -19 20 -19 15 0 20 7 20 26 0 14 4 23 10 19 6 -3
10 -26 10 -51 0 -24 -4 -44 -10 -44 -5 0 -10 9 -10 20 0 13 -7 20 -20 20 -13
0 -20 -7 -20 -20 0 -11 -4 -20 -10 -20 -5 0 -10 23 -10 51 0 31 4 48 10 44 6
-3 10 -15 10 -26z m151 21 c22 -12 26 -59 7 -78 -40 -40 -95 16 -63 64 17 27
27 29 56 14z m76 -27 l15 -38 19 38 c11 20 22 37 24 37 3 0 4 -24 4 -52 -1
-41 -3 -46 -8 -24 l-6 30 -12 -27 c-16 -34 -26 -34 -40 1 l-11 27 -1 -27 c-2
-46 -21 -31 -21 15 0 39 5 57 17 57 2 0 11 -17 20 -37z m153 27 c0 -5 -9 -10
-20 -10 -28 0 -25 -30 3 -31 l22 -2 -22 -4 c-13 -2 -23 -11 -23 -18 0 -7 10
-16 23 -18 16 -3 13 -5 -10 -6 l-33 -1 0 50 c0 49 1 50 30 50 17 0 30 -4 30
-10z m467 -86 c-3 -3 -12 -4 -19 -1 -8 3 -5 6 6 6 11 1 17 -2 13 -5z m906 -1
c-7 -2 -19 -2 -25 0 -7 3 -2 5 12 5 14 0 19 -2 13 -5z m80 0 c-7 -2 -19 -2
-25 0 -7 3 -2 5 12 5 14 0 19 -2 13 -5z m90 0 c-7 -2 -19 -2 -25 0 -7 3 -2 5
12 5 14 0 19 -2 13 -5z m570 0 c-7 -2 -19 -2 -25 0 -7 3 -2 5 12 5 14 0 19 -2
13 -5z m100 0 c-7 -2 -19 -2 -25 0 -7 3 -2 5 12 5 14 0 19 -2 13 -5z m84 1
c-3 -3 -12 -4 -19 -1 -8 3 -5 6 6 6 11 1 17 -2 13 -5z m110 0 c-3 -3 -12 -4
-19 -1 -8 3 -5 6 6 6 11 1 17 -2 13 -5z m496 -1 c-7 -2 -21 -2 -30 0 -10 3 -4
5 12 5 17 0 24 -2 18 -5z m800 0 c-7 -2 -19 -2 -25 0 -7 3 -2 5 12 5 14 0 19
-2 13 -5z m-4798 -569 c33 -13 64 -26 69 -27 22 -5 121 -125 145 -176 23 -49
26 -68 26 -161 0 -99 -2 -110 -33 -172 -38 -77 -117 -156 -186 -184 -28 -11
-46 -25 -46 -35 0 -9 -5 -31 -11 -48 l-12 -33 -21 39 -22 38 -79 6 c-88 6
-156 31 -217 79 -34 28 -38 29 -70 16 -37 -15 -57 -12 -75 12 -20 24 -15 51
12 76 l24 23 -20 54 c-30 78 -24 212 12 290 28 60 82 126 132 161 101 72 258
90 372 42z m4220 4 c60 -18 108 -51 157 -109 23 -28 71 -83 105 -121 93 -103
128 -148 152 -195 12 -23 30 -47 41 -53 11 -6 20 -18 20 -28 0 -14 -4 -12 -19
7 -15 20 -19 21 -24 7 -4 -9 -14 -16 -23 -16 -16 0 -16 2 1 20 19 21 22 19
-58 35 -23 4 -34 -22 -19 -44 24 -33 42 -84 42 -117 0 -31 -2 -33 -44 -39 -55
-9 -82 8 -152 93 -27 31 -63 73 -81 93 -19 19 -42 51 -52 69 -36 68 -43 52
-41 -91 2 -139 -14 -436 -24 -446 -3 -4 -6 4 -6 16 0 14 -7 25 -20 28 -11 3
-20 9 -20 13 0 5 -9 12 -20 15 -13 4 -20 15 -20 31 0 24 -24 43 -38 30 -3 -4
-6 -37 -5 -74 l2 -67 -14 75 c-28 144 -36 206 -44 323 -5 65 -12 121 -15 125
-21 20 -27 -35 -22 -198 7 -198 2 -218 -41 -180 -15 14 -30 26 -33 28 -2 2 0
6 5 10 6 4 11 16 11 27 1 11 5 39 9 63 6 35 5 42 -9 42 -9 0 -16 4 -16 9 0 5
-16 1 -35 -7 -21 -10 -35 -23 -35 -34 0 -27 22 -68 36 -68 7 0 16 -4 19 -10 8
-12 -23 -72 -34 -66 -5 3 -16 34 -25 68 -10 35 -22 79 -29 98 l-11 35 -6 -30
c-6 -30 -11 -32 -41 -20 -27 10 -34 -53 -10 -86 12 -16 18 -35 14 -48 -10 -39
8 -72 77 -142 61 -62 71 -69 89 -59 12 6 21 20 21 30 0 11 4 20 8 20 15 0 30
-22 25 -36 -3 -8 0 -27 5 -44 9 -25 8 -31 -8 -40 -10 -5 -30 -10 -44 -10 -21
0 -26 5 -26 24 0 16 -7 27 -20 31 -11 4 -40 26 -63 49 -31 31 -53 45 -83 49
-33 6 -45 14 -68 49 -15 24 -30 59 -33 78 -3 19 -11 52 -19 73 -21 57 -19 213
4 258 26 51 83 117 112 129 16 7 35 31 52 68 15 31 63 98 107 148 74 83 99
102 171 128 20 7 116 -2 165 -16z m2807 -20 c-7 -7 -10 -5 -7 8 5 29 6 30 12
16 3 -8 1 -18 -5 -24z m-117 -8 c3 -6 -1 -7 -9 -4 -18 7 -21 14 -7 14 6 0 13
-4 16 -10z m295 -15 c0 -8 -2 -15 -4 -15 -2 0 -6 7 -10 15 -3 8 -1 15 4 15 6
0 10 -7 10 -15z m88 2 c8 -10 6 -13 -9 -13 -19 0 -24 7 -12 19 8 9 9 9 21 -6z
m-528 -1 c0 -3 -4 -8 -10 -11 -5 -3 -10 -1 -10 4 0 6 5 11 10 11 6 0 10 -2 10
-4z m128 -21 c-3 -3 -9 2 -12 12 -6 14 -5 15 5 6 7 -7 10 -15 7 -18z m78 -2
c-10 -10 -19 5 -10 18 6 11 8 11 12 0 2 -7 1 -15 -2 -18z m158 8 c3 -5 0 -11
-8 -14 -15 -6 -26 1 -26 15 0 11 27 10 34 -1z m279 -51 c46 0 49 -1 32 -14
-14 -10 -26 -11 -43 -5 -16 6 -29 6 -38 -2 -11 -9 -14 -7 -15 7 -1 16 -2 17
-6 2 -2 -9 -10 -15 -18 -12 -10 4 -11 12 -5 30 8 20 6 24 -8 24 -14 0 -14 2
-3 9 10 7 20 2 33 -15 16 -20 28 -24 71 -24z m-543 36 c0 -3 -7 -12 -16 -20
-22 -23 -37 -20 -16 3 16 18 32 26 32 17z m375 -36 c3 -5 1 -10 -4 -10 -6 0
-11 5 -11 10 0 6 2 10 4 10 3 0 8 -4 11 -10z m-180 -30 c-4 -6 -11 -8 -16 -5
-5 4 -9 1 -9 -5 0 -6 -5 -8 -10 -5 -15 9 -2 25 21 25 11 0 17 -5 14 -10z
m-278 -6 c-3 -3 -12 -4 -19 -1 -8 3 -5 6 6 6 11 1 17 -2 13 -5z m60 -50 c-3
-3 -12 -4 -19 -1 -8 3 -5 6 6 6 11 1 17 -2 13 -5z m-382 -34 c3 -5 1 -10 -4
-10 -6 0 -11 5 -11 10 0 6 2 10 4 10 3 0 8 -4 11 -10z m495 -44 c0 -2 -9 -6
-20 -9 -11 -3 -20 -1 -20 4 0 5 9 9 20 9 11 0 20 -2 20 -4z m-245 -26 c3 -5 2
-10 -4 -10 -5 0 -13 5 -16 10 -3 6 -2 10 4 10 5 0 13 -4 16 -10z m-325 -48 c0
-5 10 -14 23 -20 12 -6 16 -11 8 -11 -8 -1 -20 -9 -27 -18 -12 -16 -13 -16 -8
-1 3 9 1 26 -6 37 -7 14 -7 21 0 21 5 0 10 -4 10 -8z m433 -7 c-3 -9 -8 -14
-10 -11 -3 3 -2 9 2 15 9 16 15 13 8 -4z m-478 -85 c-28 -12 -47 -12 -40 0 3
6 18 10 33 9 24 0 25 -1 7 -9z m-45 -24 c0 -3 -4 -8 -10 -11 -5 -3 -10 -1 -10
4 0 6 5 11 10 11 6 0 10 -2 10 -4z m230 -36 c0 -5 -2 -10 -4 -10 -3 0 -8 5
-11 10 -3 6 -1 10 4 10 6 0 11 -4 11 -10z m-280 -30 c0 -5 -4 -10 -10 -10 -5
0 -9 -4 -7 -9 1 -5 -1 -9 -5 -10 -24 -3 -26 1 -10 18 19 22 32 26 32 11z m55
-40 c3 -5 -1 -10 -9 -10 -9 0 -16 5 -16 10 0 6 4 10 9 10 6 0 13 -4 16 -10z
m-85 -40 c0 -5 -8 -10 -17 -10 -15 0 -16 2 -3 10 19 12 20 12 20 0z m-42 -82
c-31 -19 -37 -8 -20 38 l17 45 8 -37 c5 -27 4 -40 -5 -46z m562 10 c0 -4 -5
-8 -11 -8 -8 0 -8 -4 0 -14 10 -11 9 -15 -3 -18 -11 -2 -13 -7 -6 -18 11 -18
17 -12 24 24 5 30 26 60 26 39 0 -8 16 -10 48 -7 26 3 63 4 82 3 19 -1 44 -2
55 -2 14 1 21 -6 22 -20 1 -11 6 -23 11 -26 16 -10 46 -75 43 -94 -2 -18 6
-23 52 -31 15 -3 34 -12 43 -21 12 -12 19 -13 30 -4 11 9 14 9 14 0 0 -7 4
-10 8 -7 4 2 14 -9 21 -25 8 -19 19 -28 27 -25 7 3 16 1 19 -4 4 -6 1 -10 -4
-10 -22 0 -10 -28 14 -32 21 -5 25 -2 20 13 -8 23 10 26 19 3 3 -9 -1 -25 -9
-37 -17 -25 -19 -37 -5 -37 6 0 10 9 10 19 0 11 5 23 10 26 6 3 10 1 10 -5 0
-6 7 -4 17 5 10 10 12 19 6 23 -5 4 -13 16 -16 27 -6 16 -4 16 12 -4 l19 -24
13 24 12 24 8 -27 c4 -15 6 -47 4 -70 -2 -24 -4 -51 -4 -60 -1 -10 -8 -18 -16
-18 -12 0 -13 4 -5 19 23 44 3 37 -32 -11 -12 -17 -17 -28 -10 -24 16 9 16
-16 0 -32 -24 -24 1 -22 30 3 37 31 52 32 52 3 0 -13 3 -34 7 -47 4 -16 2 -22
-4 -18 -6 4 -14 -7 -18 -26 -6 -30 -7 -31 -15 -9 -5 12 -12 22 -14 22 -3 0 -3
-6 0 -13 2 -7 -9 -28 -25 -46 -17 -19 -45 -64 -63 -100 -33 -66 -46 -83 -58
-76 -4 2 -13 -11 -20 -30 -8 -19 -20 -35 -27 -35 -8 0 -16 -7 -19 -15 -4 -8
-11 -12 -17 -8 -5 3 -15 0 -21 -8 -6 -8 -28 -22 -48 -31 -36 -17 -38 -17 -48
2 -13 25 -27 26 -33 3 -3 -13 -5 -12 -6 5 -1 15 -5 21 -13 16 -7 -4 -8 -3 -4
5 10 16 -12 41 -30 34 -10 -4 -14 3 -14 27 0 27 3 30 20 25 20 -6 28 9 10 20
-16 10 -13 65 4 59 10 -4 13 3 10 25 -2 18 1 31 7 31 6 0 9 7 5 15 -3 8 -2 15
2 15 4 0 27 18 51 40 36 33 39 40 22 40 -12 0 -21 5 -21 10 0 6 3 9 8 9 25 -4
42 3 42 19 0 15 -12 17 -139 15 -133 -3 -140 -2 -146 18 -7 22 12 52 27 43 5
-3 14 -1 21 4 7 5 19 9 27 9 32 0 112 12 118 17 3 3 -8 6 -25 6 -17 0 -36 6
-42 14 -6 7 -32 19 -56 26 -52 15 -48 34 10 44 19 4 35 13 35 20 0 23 -54 83
-73 80 -14 -2 -15 1 -6 18 9 17 7 24 -10 41 l-20 20 2 -21 c1 -12 5 -22 10
-22 4 0 5 -5 2 -10 -4 -6 -12 -4 -21 5 -9 8 -30 15 -47 15 -29 1 -30 2 -14 14
15 12 16 14 2 20 -9 3 -18 -1 -21 -9 -4 -8 -10 -12 -16 -9 -5 3 -5 10 0 17 9
12 13 51 4 42 -2 -2 -11 2 -19 10 -12 12 -12 18 3 40 9 13 20 22 25 19 5 -3 9
1 9 9 0 7 7 14 15 14 8 0 15 -4 15 -9z m-1897 -85 c70 -75 80 -102 50 -135
-15 -17 -14 -18 26 -18 43 0 101 -23 101 -40 0 -14 -44 -12 -58 2 -9 9 -12 7
-12 -10 0 -18 -12 -25 -85 -47 -126 -39 -147 -41 -163 -16 -10 18 -10 22 3 27
8 4 15 16 15 28 0 16 12 27 49 44 27 12 54 22 60 22 18 0 13 22 -29 119 -38
88 -50 126 -32 106 5 -6 39 -42 75 -82z m-345 26 c-2 -6 -8 -10 -13 -10 -5 0
-11 4 -13 10 -2 6 4 11 13 11 9 0 15 -5 13 -11z m1954 -23 c10 5 10 4 1 -6 -9
-10 -8 -16 3 -27 16 -17 18 -33 4 -33 -5 0 -10 -7 -10 -15 0 -8 4 -15 8 -15 5
0 9 -8 9 -17 -1 -58 4 -97 11 -87 4 6 23 15 42 19 34 7 34 6 15 -10 -20 -16
-20 -16 5 -11 14 3 32 1 40 -4 13 -9 13 -11 0 -19 -9 -7 -19 -6 -28 2 -11 8
-13 8 -12 -4 4 -25 0 -40 -8 -35 -10 6 -52 -30 -52 -44 0 -5 -7 -7 -16 -3 -8
3 -13 11 -10 18 3 8 -2 12 -12 11 -10 -2 -19 -16 -23 -35 -4 -18 -5 -30 -2
-27 11 10 43 -30 43 -54 l-1 -25 -19 23 c-10 12 -21 28 -24 35 -3 8 -11 5 -22
-10 -9 -13 -27 -23 -40 -23 -13 0 -28 -9 -34 -20 -6 -11 -15 -18 -21 -15 -5 4
-9 -3 -9 -13 0 -13 9 -21 29 -25 23 -5 30 -14 41 -52 10 -36 10 -49 1 -58 -10
-9 -11 -8 -6 5 4 11 -8 31 -38 62 l-44 46 5 213 c2 116 8 216 13 221 5 6 14 3
23 -9 13 -18 14 -18 25 3 6 12 20 22 30 22 10 0 24 7 31 15 9 11 16 12 26 4 7
-6 19 -7 26 -3z m25 -8 c-3 -8 -6 -5 -6 6 -1 11 2 17 5 13 3 -3 4 -12 1 -19z
m-1814 -30 c6 -21 2 -36 -7 -27 -10 11 -16 49 -8 49 5 0 12 -10 15 -22z m1827
8 c0 -3 -4 -8 -10 -11 -5 -3 -10 -1 -10 4 0 6 5 11 10 11 6 0 10 -2 10 -4z
m185 -6 c-3 -5 -10 -10 -16 -10 -5 0 -9 5 -9 10 0 6 7 10 16 10 8 0 12 -4 9
-10z m-465 -15 c0 -8 -2 -15 -4 -15 -2 0 -6 7 -10 15 -3 8 -1 15 4 15 6 0 10
-7 10 -15z m-2300 -65 c11 -22 17 -40 12 -40 -7 0 -42 62 -42 75 0 14 12 0 30
-35z m2760 8 c0 -5 -4 -8 -10 -8 -5 0 -10 10 -10 23 0 18 2 19 10 7 5 -8 10
-18 10 -22z m909 -50 c1 -5 -3 -8 -8 -8 -11 0 -21 37 -13 45 6 5 20 -19 21
-37z m-299 -4 c0 -8 -4 -12 -10 -9 -5 3 -10 10 -10 16 0 5 5 9 10 9 6 0 10 -7
10 -16z m127 -16 c-3 -8 -6 -5 -6 6 -1 11 2 17 5 13 3 -3 4 -12 1 -19z m274
-11 c50 -33 71 -81 63 -142 -11 -89 -36 -189 -57 -227 -31 -56 -20 -268 23
-461 30 -130 31 -147 21 -199 -11 -53 -19 -64 -101 -147 -61 -63 -94 -89 -105
-85 -10 4 -14 1 -12 -7 2 -8 2 -11 0 -6 -3 4 -10 7 -17 7 -13 0 -14 17 -1 63
4 15 12 27 19 27 6 0 4 4 -4 10 -12 7 -11 12 5 31 l20 22 -23 -12 c-27 -14
-41 -8 -37 17 1 9 -2 23 -8 30 -5 7 -7 15 -3 19 3 3 6 0 6 -7 0 -9 6 -8 20 5
27 24 25 33 -7 37 -22 2 -27 8 -25 23 2 11 3 30 3 42 0 12 4 25 9 28 17 10 -9
54 -33 55 -4 0 -12 -10 -17 -22 l-9 -23 0 23 c-1 12 3 22 7 22 5 0 9 14 9 30
0 17 9 44 21 60 15 20 22 44 22 75 0 26 -4 44 -9 40 -5 -3 -13 0 -17 6 -4 7
-3 9 3 6 12 -8 27 82 17 106 -3 9 -12 13 -21 10 -13 -5 -13 -3 -4 16 7 12 9
26 6 32 -4 5 -2 16 4 23 8 9 8 22 1 40 -5 14 -7 32 -4 40 3 8 0 17 -5 21 -6 3
-9 11 -5 16 3 6 3 21 0 35 l-7 25 -19 -23 -19 -23 4 34 c2 18 11 41 19 50 9
10 13 21 10 24 -4 4 -8 37 -8 74 -1 37 -6 76 -11 86 -7 17 -6 18 16 5 13 -7
32 -20 43 -28 16 -14 20 -12 40 14 41 55 99 106 121 106 12 0 37 -10 56 -23z
m-3503 1 c18 -18 15 -38 -5 -38 -12 0 -18 8 -18 25 0 28 5 31 23 13z m-163
-29 c11 -17 -1 -21 -15 -4 -8 9 -8 15 -2 15 6 0 14 -5 17 -11z m45 -40 c0 -6
-4 -7 -10 -4 -5 3 -10 11 -10 16 0 6 5 7 10 4 6 -3 10 -11 10 -16z m945 9 c21
-9 25 -18 25 -55 0 -32 -4 -43 -15 -43 -8 0 -15 -7 -15 -16 0 -10 6 -14 14
-11 13 5 66 -47 66 -64 0 -9 -65 -29 -92 -29 -9 0 -21 13 -27 31 -15 42 -14
56 1 41 15 -15 38 -16 38 -2 0 6 -7 10 -15 10 -18 0 -20 21 -3 38 9 9 9 12 -3
12 -9 0 -21 -10 -26 -22 -10 -21 -12 -19 -23 25 -7 26 -16 47 -21 47 -5 0 -9
5 -9 10 0 6 8 10 18 10 10 0 27 7 38 15 23 18 18 17 49 3z m1641 -5 c1 -7 2
-18 3 -24 0 -5 5 -8 10 -4 5 3 12 1 16 -4 3 -6 -10 -17 -30 -27 -19 -9 -35
-20 -35 -24 0 -5 -10 -6 -22 -2 -16 4 -19 2 -13 -9 7 -11 5 -11 -11 1 -10 8
-20 14 -21 15 -1 0 -5 13 -9 29 -6 26 -5 27 14 17 30 -16 34 -14 22 9 -6 11
-9 24 -6 28 8 13 81 8 82 -5z m-2810 -62 c-3 -4 -20 -12 -38 -15 l-33 -7 23
-16 c31 -22 30 -47 -2 -39 -32 8 -40 -7 -16 -29 11 -10 17 -21 14 -26 -3 -5 7
-26 21 -46 39 -58 30 -59 -29 -2 -60 58 -103 75 -216 87 l-65 7 45 13 c25 8
60 21 78 29 69 33 231 65 218 44z m750 -66 c1 -17 4 -37 7 -45 4 -8 11 -33 16
-55 5 -22 16 -57 25 -78 15 -34 15 -38 1 -44 -23 -8 -29 1 -60 101 -25 80 -26
90 -11 98 23 13 20 31 -4 23 -14 -4 -20 -2 -20 8 0 41 45 33 46 -8z m1938 6
c18 -18 43 -32 67 -36 48 -8 54 -18 34 -48 -8 -13 -13 -26 -10 -29 3 -3 -1
-11 -9 -17 -12 -10 -19 -8 -35 8 -11 11 -18 27 -15 36 4 10 0 15 -15 15 -14 0
-21 6 -21 18 0 11 -9 27 -20 37 -20 18 -27 45 -12 45 5 0 21 -13 36 -29z
m-2277 -57 c-3 -3 -12 -4 -19 -1 -8 3 -5 6 6 6 11 1 17 -2 13 -5z m2285 -106
c-2 -10 1 -18 7 -18 6 0 11 4 11 10 0 5 11 12 25 16 20 5 32 -1 57 -25 17 -17
35 -31 40 -31 4 0 8 -7 8 -15 0 -8 4 -15 9 -15 5 0 14 -14 22 -31 11 -28 10
-33 -4 -44 -16 -11 -15 -14 7 -28 31 -20 42 -53 25 -73 -10 -13 -25 -14 -67
-9 -50 6 -56 5 -82 -20 -26 -25 -33 -27 -75 -21 -40 6 -48 12 -60 39 l-13 32
-8 -40 c-4 -22 -13 -53 -19 -69 l-12 -29 -16 49 c-27 86 -37 141 -37 202 0 53
2 60 25 70 19 9 25 9 25 0 0 -20 32 -48 55 -48 33 0 44 20 51 88 6 52 9 59 19
45 7 -9 10 -25 7 -35z m-2188 -102 c-9 -41 -12 -46 -33 -46 -13 0 -21 10 -25
31 -8 40 6 58 40 51 22 -4 24 -8 18 -36z m1224 20 c3 -3 -16 -3 -41 0 -46 7
-47 6 -47 -20 0 -14 -4 -26 -10 -26 -5 0 -10 6 -10 13 -1 29 -15 37 -50 27
-26 -7 -31 -7 -22 2 24 24 157 26 180 4z m-1694 -2 c8 -21 8 -24 -3 -24 -5 0
-11 9 -14 20 -6 24 8 27 17 4z m546 -15 c0 -5 -4 -9 -10 -9 -5 0 -10 7 -10 16
0 8 5 12 10 9 6 -3 10 -10 10 -16z m725 -19 c33 -7 70 -24 97 -45 24 -19 58
-38 75 -41 30 -6 31 -5 38 37 5 24 10 38 12 31 3 -7 -1 -35 -7 -63 -9 -36 -15
-48 -23 -40 -6 6 -19 11 -29 11 -10 0 -18 3 -18 8 0 12 -51 28 -130 41 -67 11
-169 47 -170 62 0 11 102 10 155 -1z m-929 -68 c-13 -13 -16 -12 -22 13 -4 18
-2 30 7 36 21 13 34 -30 15 -49z m2704 48 c0 -5 -5 -10 -11 -10 -5 0 -7 5 -4
10 3 6 8 10 11 10 2 0 4 -4 4 -10z m-3026 -15 c3 -8 1 -15 -4 -15 -6 0 -10 7
-10 15 0 8 2 15 4 15 2 0 6 -7 10 -15z m1076 5 c0 -5 -4 -10 -10 -10 -5 0 -10
5 -10 10 0 6 5 10 10 10 6 0 10 -4 10 -10z m42 -20 c12 -11 19 -23 15 -26 -4
-4 -2 -13 3 -19 7 -9 3 -25 -12 -55 -27 -49 -40 -57 -74 -41 -28 12 -53 63
-33 70 8 2 8 5 -1 11 -7 4 -10 15 -7 24 8 21 37 9 37 -14 0 -24 26 -50 51 -50
15 0 19 7 19 33 0 18 -7 42 -15 53 -27 36 -17 46 17 14z m-71 -3 c-1 -12 -15
-9 -19 4 -3 6 1 10 8 8 6 -3 11 -8 11 -12z m-182 -122 c18 -27 21 -39 13 -47
-12 -12 -17 -1 -13 30 1 6 -3 12 -9 12 -15 0 -41 26 -33 34 11 11 18 6 42 -29z
m984 -15 c24 0 52 -7 63 -15 10 -8 29 -15 42 -15 13 0 32 -5 42 -10 11 -6 43
-15 72 -20 73 -14 188 -69 181 -86 -3 -8 -10 -11 -15 -8 -6 4 -8 -2 -3 -15 5
-16 2 -21 -10 -21 -12 0 -15 6 -10 20 8 26 -29 35 -85 20 -23 -6 -44 -9 -47
-7 -2 3 12 17 32 33 40 30 34 44 -21 44 -40 0 -66 -22 -99 -85 -15 -27 -24
-43 -22 -34 3 9 9 38 12 65 4 27 12 54 17 61 11 14 -4 25 -25 17 -15 -6 -37
-46 -37 -69 0 -8 -4 -15 -9 -15 -15 0 -23 57 -12 78 10 20 -2 42 -23 42 -14
-1 -66 -83 -66 -103 0 -9 -4 -19 -10 -22 -6 -4 -10 13 -10 45 0 80 -29 118
-48 63 -9 -27 -9 -28 -16 -5 -12 36 -25 25 -29 -25 -2 -32 -4 -20 -5 34 l-2
81 50 -24 c29 -14 68 -24 93 -24z m-1563 -100 c0 -11 -76 -50 -97 -50 -27 0
-11 22 30 40 47 22 67 25 67 10z m90 6 c0 -3 -4 -8 -10 -11 -5 -3 -10 -1 -10
4 0 6 5 11 10 11 6 0 10 -2 10 -4z m1973 -86 c48 4 59 -3 17 -11 -64 -11 -100
-11 -100 1 0 6 10 10 22 10 21 0 21 0 2 16 -16 14 -15 14 9 -1 16 -9 38 -15
50 -15z m567 -30 c0 -11 -31 -25 -78 -36 -55 -13 13 28 76 45 1 1 2 -4 2 -9z
m-383 -40 c0 -22 -3 -27 -12 -20 -21 17 -39 2 -80 -65 -22 -35 -41 -62 -43
-60 -2 2 12 31 32 63 20 33 36 64 36 69 0 17 40 52 53 47 8 -3 14 -18 14 -34z
m-2682 0 c3 -5 1 -10 -4 -10 -6 0 -11 -8 -11 -19 0 -29 -79 -43 -121 -21 -28
16 -23 25 19 38 74 23 108 26 117 12z m1561 -127 c-12 -179 -28 -305 -38 -295
-13 13 26 392 40 392 3 0 2 -44 -2 -97z m1124 55 c-1 -26 -3 -30 -10 -16 -6 9
-7 23 -4 32 9 25 14 19 14 -16z m-170 12 c0 -5 -4 -10 -10 -10 -5 0 -10 5 -10
10 0 6 5 10 10 10 6 0 10 -4 10 -10z m1560 -34 c0 -6 11 -28 25 -48 14 -20 25
-42 25 -49 0 -7 7 -20 16 -30 15 -16 14 -17 -5 -12 -11 3 -19 9 -16 13 3 5 -5
16 -17 24 -15 11 -18 16 -8 16 11 1 10 4 -4 15 -11 8 -27 38 -37 66 -18 51
-18 51 1 34 11 -10 20 -23 20 -29z m-10064 7 c3 -16 16 -68 28 -116 l21 -88
30 116 29 116 40 -3 40 -3 30 -114 30 -114 26 114 27 114 46 3 c35 2 46 0 42
-10 -2 -7 -23 -78 -45 -158 -23 -80 -43 -153 -46 -163 -5 -14 -14 -17 -47 -15
l-41 3 -30 103 c-34 115 -31 116 -71 -20 l-26 -88 -39 0 -39 0 -20 68 c-11 37
-32 110 -47 162 -15 52 -29 101 -31 108 -4 8 8 12 41 12 42 0 46 -2 52 -27z
m764 -148 l0 -175 -39 0 c-38 0 -38 0 -45 46 -3 26 -6 105 -6 175 l0 129 45 0
45 0 0 -175z m5880 157 c0 -4 -35 -21 -77 -37 -42 -17 -80 -31 -85 -33 -4 -2
-7 8 -6 22 2 16 6 22 12 16 6 -6 17 -5 30 2 11 6 36 13 55 14 19 2 39 8 45 14
12 12 26 13 26 2z m-4320 -31 c0 -23 5 -30 23 -33 17 -2 22 -10 22 -33 0 -23
-5 -31 -22 -33 -21 -3 -23 -8 -23 -73 0 -62 2 -69 20 -69 25 0 40 -48 19 -61
-20 -13 -78 -3 -100 17 -16 14 -19 32 -19 99 0 74 -2 83 -20 88 -14 3 -20 14
-20 32 0 18 6 29 20 32 14 4 20 14 20 34 0 27 3 29 40 29 38 0 40 -2 40 -29z
m-1734 -56 c28 -18 54 -71 54 -110 0 -25 0 -25 -90 -25 -73 0 -90 -3 -90 -15
0 -8 12 -22 26 -32 25 -16 28 -16 56 0 16 9 45 17 63 17 31 0 34 -2 26 -22
-20 -55 -108 -82 -174 -55 -70 30 -98 121 -59 197 32 66 124 88 188 45z m404
10 c33 -17 60 -52 60 -77 0 -28 -76 -26 -83 2 -4 15 -14 20 -36 20 -35 0 -51
-22 -51 -70 0 -48 16 -70 51 -70 22 0 32 5 36 20 7 28 83 30 83 2 0 -25 -27
-60 -60 -77 -89 -46 -190 20 -190 123 0 107 100 174 190 127z m280 0 c50 -26
70 -61 70 -125 0 -43 -5 -64 -21 -84 -82 -105 -239 -51 -239 82 0 107 100 174
190 127z m190 -7 c1 -20 2 -21 11 -6 16 29 76 34 108 10 26 -19 29 -19 45 -4
11 11 33 17 62 17 72 0 84 -22 84 -156 l0 -109 -40 0 -39 0 -3 98 -3 97 -30 0
-30 0 -3 -97 -3 -98 -39 0 -40 0 0 88 c0 91 -8 112 -42 112 -28 0 -38 -33 -38
-119 l0 -81 -40 0 -40 0 0 128 c0 71 3 132 7 135 3 4 21 7 40 7 27 0 33 -4 33
-22z m556 -3 c28 -18 54 -71 54 -110 0 -25 0 -25 -90 -25 -73 0 -90 -3 -90
-15 0 -8 12 -22 26 -32 25 -16 28 -16 56 0 16 9 45 17 63 17 31 0 34 -2 26
-22 -20 -55 -108 -82 -174 -55 -70 30 -98 121 -59 197 32 66 124 88 188 45z
m574 7 c62 -30 86 -113 56 -187 -41 -98 -193 -98 -237 -1 -23 52 -23 80 0 132
31 68 109 92 181 56z m3824 4 c-5 -12 -45 -36 -61 -36 -5 0 55 45 64 49 1 1 0
-5 -3 -13z m300 -29 c11 -31 -2 -50 -44 -62 -20 -6 -23 -5 -13 5 8 9 9 20 2
37 -6 18 -6 30 2 40 18 21 42 12 53 -20z m-427 -4 c12 -8 20 -20 18 -26 -2 -7
10 -21 28 -32 18 -11 39 -34 48 -51 14 -29 17 -30 34 -17 11 7 37 19 57 25 21
6 38 17 38 25 0 11 5 11 20 3 11 -6 36 -9 57 -8 69 5 47 -17 -46 -45 -50 -16
-91 -34 -91 -41 0 -6 9 -38 20 -69 23 -65 16 -93 -24 -103 -46 -11 -60 -1 -82
61 l-22 60 -48 -1 c-27 0 -66 -4 -86 -8 -34 -6 -38 -10 -38 -36 0 -19 -7 -33
-19 -40 -17 -9 -28 -2 -75 47 -31 31 -56 59 -56 62 0 3 9 19 19 35 11 16 17
35 14 42 -3 8 5 16 21 20 38 9 56 -2 24 -15 -33 -13 -33 -12 -9 -40 l20 -23
13 21 c7 12 23 21 38 21 19 0 28 7 37 29 8 23 21 32 54 42 l44 11 -55 27 c-30
14 -57 27 -59 28 -1 1 0 6 3 12 8 13 74 2 103 -16z m2222 0 c-17 -22 -31 -33
-43 -33 -5 0 4 11 20 25 34 29 42 32 23 8z m1167 -49 c-30 -21 -42 -17 -15 5
13 11 26 17 29 14 3 -2 -4 -11 -14 -19z m849 -88 c44 -30 136 -91 205 -136 69
-44 157 -104 195 -133 l70 -54 3 -72 3 -72 -53 37 c-112 78 -167 126 -161 140
3 8 -20 21 -56 35 -67 24 -78 34 -31 27 17 -3 30 -4 30 -3 0 20 -139 145 -162
145 -5 0 -8 8 -8 18 0 23 -25 46 -111 103 -37 24 -75 50 -85 57 -11 7 4 1 31
-12 28 -13 86 -49 130 -80z m-865 50 c0 -2 -8 -10 -17 -17 -16 -13 -17 -12 -4
4 13 16 21 21 21 13z m352 -98 c2 -25 0 -44 -4 -41 -5 2 -7 30 -7 61 1 62 6
53 11 -20z m-324 23 c2 -29 -12 -48 -37 -47 -18 1 -24 36 -5 36 7 0 18 9 24
20 14 26 15 25 18 -9z m381 -17 l24 -17 -24 -13 c-35 -19 -39 -17 -39 16 0 34
6 37 39 14z m-2449 -14 c-38 -12 -99 -12 -80 0 8 5 35 9 60 9 37 -1 41 -2 20
-9z m2116 -12 c5 -8 2 -9 -9 -5 -10 3 -17 2 -17 -3 0 -6 -5 -10 -11 -10 -8 0
-8 5 1 15 15 18 26 19 36 3z m-798 -36 c5 -9 13 -35 17 -57 14 -74 14 -84 0
-78 -8 2 -20 1 -29 -4 -12 -7 -12 -13 1 -48 25 -70 52 -218 42 -237 -16 -30
-28 -20 -44 35 -26 91 -55 404 -39 420 9 9 42 -10 52 -31z m1206 32 c15 -6 15
-8 -1 -20 -26 -19 -43 -17 -43 6 0 20 15 25 44 14z m-490 -29 c3 -8 1 -15 -4
-15 -6 0 -10 7 -10 15 0 8 2 15 4 15 2 0 6 -7 10 -15z m424 -8 l23 -13 -25
-12 c-33 -15 -33 -30 0 -38 l27 -7 -24 -18 c-13 -10 -27 -19 -31 -19 -5 0 -8
27 -8 60 0 64 2 66 38 47z m-1072 -53 c-4 -14 -9 -24 -12 -21 -3 2 -2 17 2 31
3 15 9 25 11 22 3 -3 2 -17 -1 -32z m1154 32 c0 -2 -11 -11 -25 -20 -24 -16
-25 -16 -25 4 0 15 7 20 25 20 14 0 25 -2 25 -4z m-10 -49 c0 -2 -9 -12 -20
-22 -19 -18 -20 -17 -20 3 0 15 6 22 20 22 11 0 20 -2 20 -3z m-355 -47 c0 -7
-6 -15 -14 -18 -9 -3 -11 0 -6 8 5 9 4 11 -3 6 -9 -5 -7 -14 5 -31 17 -23 41
-36 28 -15 -7 12 5 13 20 2 35 -26 -30 -56 -148 -69 l-58 -6 29 29 c16 16 41
36 57 44 21 11 24 16 12 18 -22 5 -22 32 1 34 9 0 22 2 29 2 6 1 15 5 19 9 11
11 29 3 29 -13z m283 -8 c9 -7 8 -13 -8 -27 -11 -10 -20 -13 -20 -7 0 6 -3 17
-6 26 -7 17 12 21 34 8z m-1057 -37 c10 7 12 -45 3 -69 -9 -23 -23 -20 -17 3
3 10 0 22 -6 25 -13 8 -15 49 -3 60 4 4 8 1 10 -8 2 -9 8 -14 13 -11z m1094
-31 c-9 -13 -20 -22 -25 -19 -5 3 -13 -3 -19 -12 -9 -16 -10 -16 -11 5 0 27
17 62 29 62 5 0 7 -9 4 -20 -3 -12 0 -20 6 -20 7 0 9 5 6 10 -3 6 -1 10 5 10
6 0 8 5 5 10 -3 6 -3 16 2 23 5 9 9 7 11 -6 2 -10 -4 -29 -13 -43z m-1140 -4
c3 -5 1 -10 -4 -10 -6 0 -11 5 -11 10 0 6 2 10 4 10 3 0 8 -4 11 -10z m-8937
-66 c20 -23 23 -35 19 -68 -8 -54 -35 -76 -98 -76 l-49 0 0 83 c0 46 3 87 8
91 4 4 27 6 52 3 32 -4 51 -12 68 -33z m80 -34 c3 -65 14 -90 38 -90 30 0 44
31 44 96 0 50 3 64 15 64 22 0 21 -127 -1 -158 -18 -27 -84 -31 -108 -6 -21
20 -24 168 -3 162 7 -3 13 -29 15 -68z m214 8 l43 -63 3 63 c2 46 7 62 17 62
12 0 15 -18 15 -90 0 -79 -2 -90 -17 -90 -11 0 -34 25 -58 62 l-40 63 -3 -63
c-2 -46 -7 -62 -17 -62 -12 0 -15 17 -15 83 0 120 10 125 72 35z m224 -20 c16
-45 31 -86 32 -90 8 -18 -28 -7 -38 12 -7 14 -21 20 -44 20 -25 0 -35 -5 -39
-20 -3 -11 -13 -20 -22 -20 -11 0 -15 5 -12 14 3 8 18 49 33 90 36 103 51 101
90 -6z m224 62 c41 -41 13 -100 -47 -100 -30 0 -33 -3 -33 -30 0 -20 -5 -30
-15 -30 -12 0 -15 16 -15 83 0 46 3 87 7 90 15 15 83 7 103 -13z m80 -20 l0
-40 40 0 40 0 0 40 c0 29 4 40 15 40 12 0 15 -17 15 -90 0 -73 -3 -90 -15 -90
-10 0 -15 11 -15 35 0 34 -1 35 -40 35 -39 0 -40 -1 -40 -35 0 -24 -5 -35 -15
-35 -12 0 -15 17 -15 90 0 73 3 90 15 90 11 0 15 -11 15 -40z m275 15 c32 -31
34 -91 4 -129 -45 -57 -139 -19 -139 56 0 33 23 84 42 91 32 13 70 6 93 -18z
m175 10 c0 -9 -9 -15 -25 -15 -24 0 -25 -2 -25 -75 0 -60 -3 -75 -15 -75 -12
0 -15 15 -15 75 l0 75 -30 0 c-29 0 -38 9 -23 23 3 4 35 7 70 7 49 0 63 -3 63
-15z m147 -9 c23 -20 28 -32 28 -69 0 -57 -25 -87 -72 -87 -48 0 -71 15 -81
54 -13 46 -4 83 26 106 33 27 65 25 99 -4z m235 2 c21 -21 22 -23 4 -26 -10
-2 -22 1 -26 8 -10 16 -55 9 -55 -8 0 -8 20 -24 45 -35 49 -24 62 -53 35 -81
-25 -25 -90 -21 -110 7 -14 19 -14 22 0 25 8 2 22 -4 31 -12 20 -20 38 -20 54
-1 16 19 10 26 -43 45 -33 12 -43 21 -45 42 -6 52 69 77 110 36z m168 7 c0 -9
-9 -15 -25 -15 -24 0 -25 -2 -25 -75 0 -60 -3 -75 -15 -75 -12 0 -15 15 -15
75 l0 75 -30 0 c-29 0 -38 9 -23 23 3 4 35 7 70 7 49 0 63 -3 63 -15z m60 -49
c0 -65 14 -96 44 -96 24 0 35 25 38 90 2 50 7 65 18 65 11 0 16 -14 18 -49 6
-91 -15 -126 -75 -126 -59 0 -73 21 -73 107 0 58 3 73 15 73 12 0 15 -14 15
-64z m272 34 c26 -32 24 -97 -4 -127 -17 -18 -32 -23 -70 -23 l-48 0 0 91 0
92 52 -5 c38 -4 57 -12 70 -28z m78 -60 c0 -73 -3 -90 -15 -90 -12 0 -15 17
-15 90 0 73 3 90 15 90 12 0 15 -17 15 -90z m165 65 c32 -31 34 -91 4 -129
-45 -57 -139 -19 -139 56 0 33 23 84 42 91 32 13 70 6 93 -18z m5185 -22 c0
-7 -6 -13 -14 -13 -15 0 -29 38 -19 53 7 12 33 -20 33 -40z m-50 -13 c0 -5 -2
-10 -4 -10 -3 0 -8 5 -11 10 -3 6 -1 10 4 10 6 0 11 -4 11 -10z m2330 3 c0 -5
-8 -21 -19 -36 -15 -23 -19 -25 -25 -12 -3 9 -2 13 4 10 11 -7 32 29 23 39 -3
3 -1 6 5 6 7 0 12 -3 12 -7z m-2372 -33 c-13 -10 -27 -15 -32 -10 -10 10 2 32
14 25 5 -3 11 -1 15 5 4 6 11 8 16 4 5 -3 -1 -14 -13 -24z m1475 -23 c-9 -16
-24 9 -17 28 7 18 8 18 14 -1 4 -10 5 -23 3 -27z m-1521 -4 c-7 -3 -19 -11
-26 -19 -19 -18 -36 -18 -36 1 0 20 52 47 65 33 7 -7 6 -12 -3 -15z m2450 -44
c-9 -23 -18 -37 -20 -31 -3 10 24 72 32 72 3 0 -3 -19 -12 -41z m120 -1 c-10
-22 -11 -21 -11 12 -1 26 2 31 11 22 8 -8 8 -17 0 -34z m-1047 13 c-3 -6 -11
-8 -17 -5 -6 4 -5 9 3 15 16 10 23 4 14 -10z m87 -6 c5 -22 2 -25 -24 -25
l-29 0 18 25 c23 31 30 31 35 0z m753 6 c-3 -6 -11 -11 -16 -11 -5 0 -4 6 3
14 14 16 24 13 13 -3z m-36 -47 c-6 -8 -15 -12 -18 -8 -3 4 0 9 7 11 6 3 9 10
6 15 -4 7 -2 8 5 4 9 -6 9 -11 0 -22z m221 1 c0 -7 -7 -18 -15 -25 -13 -11
-15 -8 -15 18 0 24 4 30 15 26 8 -4 15 -12 15 -19z m-920 -26 c0 -14 -7 -19
-25 -19 -25 0 -25 1 -9 25 18 27 34 25 34 -6z m-70 0 c0 -11 -4 -18 -10 -14
-5 3 -7 12 -3 20 7 21 13 19 13 -6z m950 -22 c0 -14 -20 -37 -32 -37 -4 0 -8
16 -8 35 0 33 2 35 20 25 11 -6 20 -16 20 -23z m-210 15 c0 -4 -16 -23 -35
-42 -19 -19 -35 -29 -35 -22 0 7 5 12 10 12 6 0 10 4 10 10 0 12 32 50 42 50
5 0 8 -4 8 -8z m-720 -57 c0 -8 -7 -15 -15 -15 -16 0 -38 34 -28 43 9 10 43
-12 43 -28z m69 -12 c1 -7 -10 -13 -24 -13 -30 0 -30 3 -8 37 16 23 17 24 24
7 4 -11 8 -25 8 -31z m894 10 c-6 -14 -8 -14 -14 3 -12 30 -10 37 5 24 8 -6
12 -19 9 -27z m970 10 c-7 -2 -19 -2 -25 0 -7 3 -2 5 12 5 14 0 19 -2 13 -5z
m-1299 -32 c3 -4 -3 -16 -14 -26 -19 -17 -20 -17 -20 -1 0 9 5 14 10 11 6 -3
10 1 10 9 0 18 6 21 14 7z m294 -4 c7 -8 7 -17 -2 -30 -19 -25 -26 -21 -26 13
0 32 11 38 28 17z m-916 -32 c4 -19 1 -25 -13 -25 -21 0 -25 20 -7 38 16 16
15 16 20 -13z m70 -10 c5 -22 2 -25 -23 -25 -33 0 -36 6 -12 32 22 24 30 23
35 -7z m493 -15 c-9 -10 -23 -16 -31 -13 -8 3 -14 -1 -14 -11 0 -9 -2 -16 -4
-16 -2 0 -11 -3 -20 -6 -33 -13 -14 13 29 40 25 16 45 34 46 40 0 6 3 5 6 -2
3 -7 -3 -22 -12 -32z m-445 -10 c0 -5 -4 -10 -10 -10 -5 0 -10 5 -10 10 0 6 5
10 10 10 6 0 10 -4 10 -10z m-150 -10 c0 -5 -5 -10 -11 -10 -5 0 -7 5 -4 10 3
6 8 10 11 10 2 0 4 -4 4 -10z m174 -18 c3 -5 -1 -9 -9 -9 -8 0 -15 4 -15 9 0
4 4 8 9 8 6 0 12 -4 15 -8z m331 -30 c-8 -8 -25 10 -19 20 4 6 9 5 15 -3 4 -7
6 -15 4 -17z m-505 8 c0 -5 -2 -10 -4 -10 -3 0 -8 5 -11 10 -3 6 -1 10 4 10 6
0 11 -4 11 -10z m234 -32 c-5 -8 -1 -9 12 -4 14 5 16 4 7 -5 -6 -6 -16 -8 -22
-5 -14 9 -14 26 0 26 5 0 7 -5 3 -12z m196 1 c0 -5 -4 -7 -10 -4 -5 3 -10 1
-10 -5 0 -6 -5 -8 -11 -4 -8 4 -7 9 2 15 19 12 29 11 29 -2z m-120 -14 c0 -8
-2 -15 -4 -15 -2 0 -6 7 -10 15 -3 8 -1 15 4 15 6 0 10 -7 10 -15z m40 0 c0
-8 -4 -15 -10 -15 -5 0 -7 7 -4 15 4 8 8 15 10 15 2 0 4 -7 4 -15z m30 5 c0
-5 -2 -10 -4 -10 -3 0 -8 5 -11 10 -3 6 -1 10 4 10 6 0 11 -4 11 -10z m-380
-30 c0 -16 -4 -30 -10 -30 -11 0 -14 43 -3 53 11 12 13 8 13 -23z m663 16 c17
-13 25 -32 8 -22 -4 3 -16 -3 -26 -14 -14 -15 -22 -17 -37 -9 -16 9 -19 8 -16
-2 6 -18 -28 -53 -45 -46 -7 3 -19 -4 -25 -14 -15 -23 -28 -24 -36 -3 -5 13
-4 14 7 6 15 -13 27 -6 27 16 0 10 -8 13 -26 9 -14 -2 -22 -1 -17 3 15 15 48
16 59 1 16 -21 37 -5 24 19 -13 25 -13 26 12 27 11 1 24 7 28 14 5 8 11 6 19
-7 11 -17 12 -16 8 9 -5 30 8 34 36 13z m214 -73 c-11 -101 -13 -108 -31 -94
-11 9 -15 9 -18 -1 -3 -7 -12 1 -22 21 -10 18 -12 30 -6 26 9 -6 10 1 5 24 -6
28 -2 36 30 66 20 19 40 35 44 35 4 0 3 -35 -2 -77z m-880 -55 c-3 -8 -6 -5
-6 6 -1 11 2 17 5 13 3 -3 4 -12 1 -19z m136 -96 c-8 -12 -11 -28 -7 -35 5 -9
4 -9 -5 -1 -8 7 -9 18 -2 36 5 14 5 31 1 38 -5 8 -6 18 -3 23 3 5 11 -2 18
-15 10 -19 10 -27 -2 -46z m121 11 c-32 -23 -44 -9 -28 32 6 14 8 14 26 -2 18
-16 18 -18 2 -30z m50 -51 c-32 -17 -38 -12 -29 28 l7 32 24 -23 25 -23 -27
-14z m-104 33 c0 -17 -36 -39 -50 -30 -6 3 -10 12 -9 18 0 9 2 9 6 0 7 -19 21
-16 28 7 7 23 25 27 25 5z m48 -38 c11 -8 9 -13 -10 -23 -33 -19 -35 -18 -30
16 4 29 10 30 40 7z m-64 -82 c-9 -14 -20 -25 -24 -25 -12 0 -18 33 -12 70 l5
34 23 -28 c23 -25 23 -28 8 -51z m-49 -6 c-10 -15 -25 -10 -19 6 4 8 10 12 15
9 5 -3 7 -10 4 -15z m8 -37 c5 -7 -27 -52 -37 -52 -12 0 -6 48 7 53 18 8 25 8
30 -1z m-243 -42 c0 -11 -7 -20 -15 -20 -8 0 -15 9 -15 20 0 11 7 20 15 20 8
0 15 -9 15 -20z m31 -10 c6 0 7 5 4 10 -3 6 -2 10 4 10 6 0 15 -9 21 -19 14
-27 13 -36 -4 -22 -8 6 -20 10 -27 9 -8 -2 -14 7 -16 22 -1 14 1 17 3 8 3 -10
10 -18 15 -18z m233 -5 c-4 -8 0 -23 7 -32 8 -8 13 -28 12 -42 -2 -22 -1 -21
8 7 5 17 14 32 19 32 6 0 5 8 -2 20 -17 26 0 40 19 15 9 -12 13 -32 10 -51 -4
-20 1 -42 13 -62 17 -27 17 -33 5 -45 -8 -8 -11 -17 -8 -21 4 -3 1 -6 -5 -6
-7 0 -12 8 -12 18 0 10 -6 27 -14 38 -14 18 -15 18 -21 2 -4 -10 -11 -16 -15
-13 -5 3 -6 -4 -3 -16 3 -11 11 -18 18 -15 13 4 65 -38 65 -54 0 -4 -8 -7 -17
-5 -10 2 -21 4 -25 4 -4 1 -9 10 -13 20 -4 12 -12 18 -20 14 -16 -5 -33 29
-39 76 -2 14 -7 37 -10 51 -8 28 8 80 23 80 6 0 8 -7 5 -15z m654 -133 c2
-134 1 -142 -17 -142 -11 0 -21 9 -25 23 -8 31 -8 252 1 261 4 4 14 5 23 4 12
-3 15 -26 18 -146z m-627 111 c13 -16 12 -17 -3 -4 -10 7 -18 15 -18 17 0 8 8
3 21 -13z m99 -59 c16 -48 5 -55 -14 -9 -19 44 -19 45 -7 45 5 0 15 -16 21
-36z m-290 -4 c0 -31 41 -79 68 -80 6 0 12 -10 12 -22 l0 -21 -25 23 c-14 13
-28 20 -31 17 -4 -4 -12 4 -19 16 -16 31 -26 97 -14 97 5 0 9 -14 9 -30z m128
-55 c-3 -3 -9 2 -12 12 -6 14 -5 15 5 6 7 -7 10 -15 7 -18z m182 -44 c0 -10
-6 -25 -13 -36 -13 -17 -15 -17 -30 5 -9 13 -14 26 -11 29 3 3 9 -1 14 -9 6
-9 10 -10 10 -3 0 6 -5 15 -10 18 -8 5 -7 11 1 21 14 17 39 1 39 -25z m20 -61
c0 -22 -5 -30 -18 -30 -30 0 -33 12 -9 35 12 13 23 23 25 24 1 1 2 -12 2 -29z
m-47 -52 c8 -28 5 -30 -27 -26 -25 3 -26 4 -11 26 20 28 31 28 38 0z m57 2 c0
-5 -5 -10 -11 -10 -5 0 -7 5 -4 10 3 6 8 10 11 10 2 0 4 -4 4 -10z m30 -21 c0
-5 -4 -9 -10 -9 -5 0 -10 7 -10 16 0 8 5 12 10 9 6 -3 10 -10 10 -16z m-20
-59 c-9 -22 -19 -30 -38 -30 -29 0 -20 -16 12 -22 11 -1 21 -9 24 -16 4 -13
-3 -13 -75 -2 -2 0 -3 7 -3 15 0 8 -4 15 -9 15 -16 0 -41 30 -40 48 0 12 3 10
9 -6 5 -12 15 -25 23 -28 21 -8 85 24 92 47 4 11 9 18 12 15 3 -3 0 -19 -7
-36z m462 -88 c-13 -13 -29 -18 -50 -14 -24 3 -32 0 -32 -11 0 -14 27 -32 43
-28 5 1 6 -3 2 -9 -4 -6 -16 -5 -34 4 -23 12 -27 20 -23 45 4 30 6 31 58 31
53 0 53 -1 36 -18z m-345 -147 c78 -4 179 -70 159 -104 -8 -12 -87 6 -107 25
-20 18 -33 18 -25 -1 14 -36 -102 -50 -127 -15 -8 12 -36 25 -73 33 -48 11
-60 18 -62 35 -4 27 22 39 44 21 13 -11 18 -10 26 5 9 16 18 17 62 11 28 -4
74 -9 103 -10z m-310 -201 c-9 -9 -28 6 -21 18 4 6 10 6 17 -1 6 -6 8 -13 4
-17z m684 -7 c10 -38 -7 -43 -20 -5 -14 39 -14 41 1 36 7 -3 15 -16 19 -31z
m-641 -7 c0 -5 -4 -10 -9 -10 -6 0 -13 5 -16 10 -3 6 1 10 9 10 9 0 16 -4 16
-10z m50 0 c0 -5 -4 -10 -10 -10 -5 0 -10 5 -10 10 0 6 5 10 10 10 6 0 10 -4
10 -10z"/>
<path d="M70 6134 l0 -66 27 7 c41 10 53 24 53 61 0 39 -22 64 -56 64 -23 0
-24 -3 -24 -66z"/>
<path d="M4235 6109 c-10 -16 4 -59 19 -59 21 0 38 27 31 50 -7 21 -39 27 -50
9z"/>
<path d="M3140 5438 c-78 -30 -169 -123 -199 -203 -19 -49 -22 -75 -19 -140 2
-44 11 -95 19 -113 l14 -33 64 46 c36 25 73 45 84 45 35 0 57 -19 57 -50 0
-32 -21 -56 -87 -98 -24 -15 -43 -30 -43 -34 0 -15 82 -67 131 -83 69 -23 187
-17 253 13 l50 23 -72 72 c-40 40 -72 81 -72 91 0 14 -5 17 -24 12 -119 -30
-203 125 -115 213 93 93 246 0 210 -127 -8 -27 -7 -32 8 -32 16 0 70 -51 123
-117 l27 -33 20 34 c73 118 67 295 -14 391 l-25 30 10 -27 c5 -16 6 -28 2 -28
-9 0 -90 25 -126 39 l-29 12 31 32 c18 18 32 36 32 39 0 4 -25 16 -55 27 -75
28 -180 27 -255 -1z"/>
<path d="M3191 5189 c-26 -26 -31 -38 -31 -79 0 -41 5 -53 31 -79 25 -26 38
-31 78 -31 40 0 52 5 79 33 27 27 32 41 32 79 0 39 -5 52 -31 77 -26 26 -38
31 -79 31 -41 0 -53 -5 -79 -31z"/>
<path d="M7096 5029 c-12 -8 -15 -14 -7 -18 7 -5 2 -12 -14 -21 -26 -14 -43
-66 -31 -96 6 -16 34 27 71 114 15 34 11 38 -19 21z"/>
<path d="M7226 5004 c-4 -9 -4 -19 -1 -22 2 -3 7 3 11 12 4 9 4 19 1 22 -2 3
-7 -3 -11 -12z"/>
<path d="M7045 4783 c4 -10 14 -37 22 -60 13 -38 33 -58 33 -34 0 19 -43 111
-52 111 -6 0 -7 -8 -3 -17z"/>
<path d="M10155 4700 c-3 -5 1 -10 10 -10 9 0 13 5 10 10 -3 6 -8 10 -10 10
-2 0 -7 -4 -10 -10z"/>
<path d="M10758 4483 c-17 -18 -25 -53 -12 -53 15 0 35 32 32 51 -3 21 -3 21
-20 2z"/>
<path d="M10707 4433 c-10 -10 -8 -43 2 -43 9 0 21 24 21 41 0 11 -14 12 -23
2z"/>
<path d="M10746 4293 c-6 -14 -5 -15 5 -6 7 7 10 15 7 18 -3 3 -9 -2 -12 -12z"/>
<path d="M10360 4060 c0 -5 5 -10 11 -10 5 0 7 5 4 10 -3 6 -8 10 -11 10 -2 0
-4 -4 -4 -10z"/>
<path d="M10400 4000 c0 -5 7 -7 15 -4 8 4 15 8 15 10 0 2 -7 4 -15 4 -8 0
-15 -4 -15 -10z"/>
<path d="M9807 4534 c-4 -4 -7 -17 -7 -28 1 -19 1 -20 11 -3 11 19 8 43 -4 31z"/>
<path d="M11092 4454 c17 -30 20 -46 16 -107 -6 -81 8 -60 18 26 4 42 1 59
-15 85 -28 44 -46 41 -19 -4z"/>
<path d="M10943 4384 c-3 -8 -3 -40 1 -70 5 -46 3 -59 -15 -83 -21 -28 -23
-61 -4 -63 6 -1 23 17 38 40 16 23 35 42 42 42 26 0 55 42 55 81 0 36 -24 73
-32 48 -3 -8 -14 -7 -41 5 -34 14 -38 14 -44 0z m63 -65 c3 -6 2 -15 -4 -21
-12 -12 -55 8 -47 23 8 12 42 12 51 -2z"/>
<path d="M11076 4233 c-6 -14 -5 -15 5 -6 7 7 10 15 7 18 -3 3 -9 -2 -12 -12z"/>
<path d="M10916 3313 c-6 -14 -5 -15 5 -6 7 7 10 15 7 18 -3 3 -9 -2 -12 -12z"/>
<path d="M10020 4450 c0 -5 5 -10 10 -10 6 0 10 5 10 10 0 6 -4 10 -10 10 -5
0 -10 -4 -10 -10z"/>
<path d="M7045 4350 c-4 -6 8 -10 30 -10 22 0 34 4 30 10 -3 6 -17 10 -30 10
-13 0 -27 -4 -30 -10z"/>
<path d="M10055 4010 c-3 -6 1 -7 9 -4 18 7 21 14 7 14 -6 0 -13 -4 -16 -10z"/>
<path d="M1652 3404 c-34 -24 -26 -34 28 -34 52 0 60 8 34 34 -19 20 -34 20
-62 0z"/>
<path d="M2350 3400 c-13 -13 -20 -33 -20 -56 0 -51 15 -74 50 -74 35 0 50 23
50 74 0 35 -27 76 -50 76 -5 0 -19 -9 -30 -20z"/>
<path d="M3082 3404 c-34 -24 -26 -34 28 -34 52 0 60 8 34 34 -19 20 -34 20
-62 0z"/>
<path d="M3670 3402 c-17 -14 -23 -29 -23 -60 0 -51 18 -74 52 -70 49 6 65 93
24 133 -19 19 -26 19 -53 -3z"/>
<path d="M7402 3338 c-14 -14 -15 -47 -2 -68 13 -21 22 -7 27 40 4 41 -4 49
-25 28z"/>
<path d="M10830 3239 c0 -5 5 -7 10 -4 6 3 10 8 10 11 0 2 -4 4 -10 4 -5 0
-10 -5 -10 -11z"/>
<path d="M1110 2864 l0 -66 33 7 c43 10 44 11 52 46 9 42 -16 79 -55 79 l-30
0 0 -66z"/>
<path d="M1670 2891 c0 -5 -3 -16 -6 -25 -4 -12 0 -16 16 -16 16 0 20 4 16 16
-3 9 -6 20 -6 25 0 5 -4 9 -10 9 -5 0 -10 -4 -10 -9z"/>
<path d="M1870 2900 c0 -27 3 -30 29 -30 34 0 45 12 36 40 -4 14 -15 20 -36
20 -26 0 -29 -3 -29 -30z"/>
<path d="M2216 2908 c-22 -31 -20 -64 4 -88 24 -24 29 -24 58 -4 15 10 22 25
22 49 0 60 -54 87 -84 43z"/>
<path d="M2542 2918 c-6 -6 -12 -29 -12 -50 0 -70 78 -89 94 -23 14 56 -46
109 -82 73z"/>
<path d="M3270 2864 l0 -66 27 7 c41 10 53 24 53 61 0 39 -22 64 -56 64 -23 0
-24 -3 -24 -66z"/>
<path d="M3516 2908 c-22 -31 -20 -64 4 -88 24 -24 29 -24 58 -4 15 10 22 25
22 49 0 60 -54 87 -84 43z"/>
<path d="M10997 2013 c-11 -10 -8 -93 3 -93 6 0 10 23 10 50 0 51 -1 55 -13
43z"/>
<path d="M10999 1908 c-1 -4 -1 -77 0 -110 1 -16 6 -28 11 -28 6 0 10 28 10
64 0 36 -4 68 -10 71 -5 3 -10 5 -11 3z"/>
<path d="M8185 2965 c-25 -12 -26 -14 -5 -9 14 4 29 10 35 15 12 12 5 11 -30
-6z"/>
<path d="M8100 2845 c0 -8 2 -15 4 -15 2 0 6 7 10 15 3 8 1 15 -4 15 -6 0 -10
-7 -10 -15z"/>
<path d="M8435 2460 c-3 -5 -1 -10 5 -10 6 0 8 -5 4 -12 -5 -9 -3 -9 9 1 9 7
14 17 11 22 -7 12 -21 11 -29 -1z"/>
<path d="M8521 2427 c-1 -24 30 -95 35 -81 3 6 -4 31 -15 55 -11 24 -20 36
-20 26z"/>
<path d="M8424 2350 c-47 -21 -60 -35 -46 -53 5 -7 13 -25 19 -41 l9 -29 33
31 c21 19 31 35 26 43 -5 7 -4 10 2 6 12 -8 23 14 23 44 0 23 -13 23 -66 -1z"/>
<path d="M8438 2244 c-12 -13 -14 -20 -5 -29 9 -9 14 -6 24 13 7 13 13 26 13
28 0 9 -17 3 -32 -12z"/>
<path d="M8480 2200 c0 -5 5 -10 11 -10 5 0 7 5 4 10 -3 6 -8 10 -11 10 -2 0
-4 -4 -4 -10z"/>
<path d="M8444 2174 c-7 -3 -9 -25 -6 -60 4 -46 1 -61 -17 -85 -16 -22 -18
-31 -9 -34 7 -3 38 -13 68 -24 30 -10 89 -31 130 -45 83 -30 200 -46 200 -28
0 6 -14 10 -32 10 -30 -1 -45 10 -74 58 -10 16 -11 15 -6 -10 4 -23 2 -27 -10
-20 -21 12 -68 69 -68 82 0 6 -8 17 -17 24 -10 7 -23 22 -29 33 -7 11 -19 19
-28 17 -9 -2 -15 1 -14 5 4 16 -14 53 -23 47 -6 -3 -13 3 -15 13 -5 18 -27 25
-50 17z"/>
<path d="M10236 1685 c-9 -24 5 -41 16 -20 7 11 7 20 0 27 -6 6 -12 3 -16 -7z"/>
<path d="M9610 1402 c6 -13 14 -21 18 -18 3 4 -2 14 -12 24 -18 16 -18 16 -6
-6z"/>
<path d="M9650 1340 c-13 -8 -12 -11 5 -24 24 -18 55 -27 55 -16 0 4 -7 10
-15 14 -8 3 -15 12 -15 21 0 17 -9 19 -30 5z"/>
<path d="M9780 1312 c0 -10 68 -82 76 -82 3 0 2 9 -1 20 -4 12 -2 20 5 20 6 0
10 6 7 13 -2 7 -15 11 -30 9 -18 -2 -29 2 -33 12 -6 17 -24 22 -24 8z"/>
<path d="M9880 1294 c0 -8 5 -12 10 -9 6 3 10 10 10 16 0 5 -4 9 -10 9 -5 0
-10 -7 -10 -16z"/>
<path d="M10750 1170 c8 -5 22 -10 30 -10 13 0 13 1 0 10 -8 5 -22 10 -30 10
-13 0 -13 -1 0 -10z"/>
<path d="M10675 1120 c3 -5 8 -10 11 -10 2 0 4 5 4 10 0 6 -5 10 -11 10 -5 0
-7 -4 -4 -10z"/>
<path d="M11347 1051 c-5 -21 -27 -30 -27 -11 0 6 -4 10 -10 10 -6 0 -6 -9 0
-24 4 -13 7 -36 5 -51 -2 -19 5 -36 21 -52 14 -14 23 -32 22 -41 -2 -11 5 -18
20 -20 17 -3 22 2 22 18 0 13 4 19 12 14 8 -5 9 0 5 16 -3 13 -2 29 3 34 12
16 0 66 -16 66 -8 0 -11 6 -8 15 4 9 -1 18 -12 22 -11 3 -22 11 -25 16 -3 5
-9 -1 -12 -12z"/>
<path d="M9035 1010 c-24 -5 -27 -8 -13 -14 22 -10 50 -4 56 12 4 13 2 13 -43
2z"/>
<path d="M9553 855 c-11 -30 5 -329 20 -370 18 -48 34 -320 19 -329 -5 -3 -7
-29 -4 -58 2 -29 5 -61 5 -70 1 -17 66 -18 1213 -18 l1212 0 6 23 c9 35 7 175
-3 181 -5 4 -14 -6 -20 -21 -9 -23 -10 -19 -5 27 3 30 10 71 15 90 9 38 12
109 10 240 l-1 85 -25 -28 c-31 -32 -45 -34 -52 -7 -3 11 -12 20 -20 20 -11 0
-13 5 -8 18 4 9 9 40 10 69 2 28 6 56 9 61 7 12 -13 62 -26 62 -5 0 -12 -8
-15 -17 -4 -10 -23 -34 -42 -54 -92 -93 -243 -261 -309 -343 -99 -123 -160
-184 -204 -207 -52 -26 -118 -24 -177 6 -36 18 -77 27 -157 35 -292 29 -541
94 -727 189 -50 26 -193 108 -317 183 -321 193 -341 206 -365 228 -26 24 -34
25 -42 5z"/>
<path d="M11951 806 c-9 -10 -8 -16 4 -26 13 -11 15 -8 15 14 0 30 -3 32 -19
12z"/>
<path d="M12092 35 c-9 -20 -9 -25 2 -25 17 0 27 23 17 39 -5 8 -11 3 -19 -14z"/>
<path d="M12042 30 c-10 -17 -10 -20 3 -20 8 0 15 9 15 20 0 11 -1 20 -3 20
-1 0 -8 -9 -15 -20z"/>
</g>


<defs>
<linearGradient id="paint0_linear" x1="1073" y1="609.001" x2="1508" y2="609.001" gradientUnits="userSpaceOnUse">
<stop stop-color="#A1C3FC"/>
<stop offset="1" stop-color="#78A9EF"/>
</linearGradient>
<linearGradient id="paint1_linear" x1="4647" y1="171167" x2="92429" y2="171167" gradientUnits="userSpaceOnUse">
<stop stop-color="#A1C3FC"/>
<stop offset="1" stop-color="#78A9EF"/>
</linearGradient>
<linearGradient id="paint2_linear" x1="660.337" y1="684.114" x2="546.005" y2="701.13" gradientUnits="userSpaceOnUse">
<stop stop-color="#FFBEB6"/>
<stop offset="1" stop-color="#F2A19C"/>
</linearGradient>
<linearGradient id="paint3_linear" x1="565.003" y1="1163.24" x2="372.894" y2="1339.63" gradientUnits="userSpaceOnUse">
<stop stop-color="#F1B505"/>
<stop offset="1" stop-color="#D89C05"/>
</linearGradient>
<linearGradient id="paint4_linear" x1="661.528" y1="991.18" x2="377.362" y2="991.18" gradientUnits="userSpaceOnUse">
<stop stop-color="#23286B"/>
<stop offset="0.3535" stop-color="#1E2361"/>
<stop offset="1" stop-color="#151A4F"/>
</linearGradient>
<linearGradient id="paint5_linear" x1="371.188" y1="694.585" x2="480.869" y2="888.679" gradientUnits="userSpaceOnUse">
<stop stop-color="#28306D"/>
<stop offset="0.6955" stop-color="#081B63"/>
<stop offset="1" stop-color="#001660"/>
</linearGradient>
<linearGradient id="paint6_linear" x1="439.476" y1="616.259" x2="411.231" y2="616.259" gradientUnits="userSpaceOnUse">
<stop stop-color="#FFBEB6"/>
<stop offset="1" stop-color="#F2A19C"/>
</linearGradient>
<linearGradient id="paint7_linear" x1="302.331" y1="959.311" x2="106.088" y2="959.311" gradientUnits="userSpaceOnUse">
<stop stop-color="#A1C3FC"/>
<stop offset="1" stop-color="#81AEF2"/>
</linearGradient>
<linearGradient id="paint8_linear" x1="779.887" y1="959.311" x2="583.643" y2="959.311" gradientUnits="userSpaceOnUse">
<stop stop-color="#A1C3FC"/>
<stop offset="1" stop-color="#81AEF2"/>
</linearGradient>
<linearGradient id="paint9_linear" x1="177.753" y1="806.421" x2="113.082" y2="806.421" gradientUnits="userSpaceOnUse">
<stop stop-color="#428DFC"/>
<stop offset="1" stop-color="#1D72D8"/>
</linearGradient>
<linearGradient id="paint10_linear" x1="346" y1="498.991" x2="1323" y2="498.991" gradientUnits="userSpaceOnUse">
<stop stop-color="#FCC817"/>
<stop offset="1" stop-color="#D3AE0A"/>
</linearGradient>
<clipPath id="clip0">
<rect width="1600" height="1200" fill="white"/>
</clipPath>
</defs>
</svg>
